<svg xmlns="http://www.w3.org/2000/svg" width="860" height="560" viewBox="0 0 860 560" font-family="Amiri, serif"><rect width="100%" height="100%" fill="#ffffff"/><line x1="154.0" y1="70.0" x2="168.0" y2="70.0" stroke="#8a6d1c" stroke-width="2" opacity="1" stroke-linecap="round"/>
<line x1="149.4" y1="87.0" x2="161.6" y2="94.0" stroke="#8a6d1c" stroke-width="2" opacity="1" stroke-linecap="round"/>
<line x1="137.0" y1="99.4" x2="144.0" y2="111.6" stroke="#8a6d1c" stroke-width="2" opacity="1" stroke-linecap="round"/>
<line x1="120.0" y1="104.0" x2="120.0" y2="118.0" stroke="#8a6d1c" stroke-width="2" opacity="1" stroke-linecap="round"/>
<line x1="103.0" y1="99.4" x2="96.0" y2="111.6" stroke="#8a6d1c" stroke-width="2" opacity="1" stroke-linecap="round"/>
<line x1="90.6" y1="87.0" x2="78.4" y2="94.0" stroke="#8a6d1c" stroke-width="2" opacity="1" stroke-linecap="round"/>
<line x1="86.0" y1="70.0" x2="72.0" y2="70.0" stroke="#8a6d1c" stroke-width="2" opacity="1" stroke-linecap="round"/>
<line x1="90.6" y1="53.0" x2="78.4" y2="46.0" stroke="#8a6d1c" stroke-width="2" opacity="1" stroke-linecap="round"/>
<line x1="103.0" y1="40.6" x2="96.0" y2="28.4" stroke="#8a6d1c" stroke-width="2" opacity="1" stroke-linecap="round"/>
<line x1="120.0" y1="36.0" x2="120.0" y2="22.0" stroke="#8a6d1c" stroke-width="2" opacity="1" stroke-linecap="round"/>
<line x1="137.0" y1="40.6" x2="144.0" y2="28.4" stroke="#8a6d1c" stroke-width="2" opacity="1" stroke-linecap="round"/>
<line x1="149.4" y1="53.0" x2="161.6" y2="46.0" stroke="#8a6d1c" stroke-width="2" opacity="1" stroke-linecap="round"/>
<circle cx="120.0" cy="70.0" r="26.0" stroke="#8a6d1c" stroke-width="2" fill="#f7e2a0"/>
<text x="120.0" y="140.0" font-size="17" fill="#8a6d1c" text-anchor="middle" direction="rtl" dominant-baseline="middle" font-weight="700">الشمس</text>
<line x1="600.0" y1="300.0" x2="411.6" y2="168.1" stroke="#2b1d12" stroke-width="2.4" opacity="1" stroke-linecap="round"/>
<line x1="600.0" y1="300.0" x2="468.1" y2="488.4" stroke="#2b1d12" stroke-width="2.4" opacity="1" stroke-linecap="round"/>
<path d="M468.1,488.4 A230.0,230.0 0 0 1 411.6,168.1" stroke="#2b1d12" stroke-width="2.4" fill="none" opacity="1" stroke-linejoin="round"/>
<line x1="562.3" y1="273.6" x2="570.3" y2="262.1" stroke="#2b1d12" stroke-width="6" opacity="1" stroke-linecap="round"/>
<line x1="449.3" y1="194.5" x2="457.3" y2="183.0" stroke="#2b1d12" stroke-width="6" opacity="1" stroke-linecap="round"/>
<line x1="150.0" y1="92.0" x2="624.6" y2="317.2" stroke="#8a6d1c" stroke-width="1.4" stroke-dasharray="7,4" opacity="1" stroke-linecap="round"/>
<line x1="600.0" y1="300.0" x2="600.0" y2="580.0" stroke="#b0301f" stroke-width="2" opacity="1" stroke-linecap="round"/>
<circle cx="600.0" cy="586.0" r="7.0" stroke="#b0301f" stroke-width="1.5" fill="#ffffff"/>
<text x="614.0" y="586.0" font-size="16" fill="#b0301f" text-anchor="end" direction="rtl" dominant-baseline="middle">الشاقول</text>
<path d="M600.0,426.5 A126.5,126.5 0 0 1 527.4,403.6" stroke="#2e6b3a" stroke-width="2.4" fill="none" opacity="1" stroke-linejoin="round"/>
<text x="554.1" y="445.4" font-size="16" fill="#2e6b3a" text-anchor="middle" direction="rtl" dominant-baseline="middle" font-weight="700">الارتفاع</text>
<line x1="40.0" y1="620.0" x2="820.0" y2="620.0" stroke="#2b1d12" stroke-width="1" stroke-dasharray="4,4" opacity="1" stroke-linecap="round"/>
<text x="780.0" y="606.0" font-size="15" fill="#2b1d12" text-anchor="middle" direction="rtl" dominant-baseline="middle">الأفق</text>
<line x1="120.0" y1="70.0" x2="365.7" y2="242.1" stroke="#8a6d1c" stroke-width="0.5" opacity="1" stroke-linecap="round"/>
<text x="660.0" y="180.0" font-size="16" fill="#2b1d12" text-anchor="end" direction="rtl" dominant-baseline="middle">الخط ذو الهُدفتين (جيب التمام) نحو الشمس</text>
<text x="458.1" y="510.4" font-size="16" fill="#2b1d12" text-anchor="start" direction="rtl" dominant-baseline="middle">الستيني (الخالي من الهدف)</text>
<text x="430.0" y="535.0" font-size="16" fill="#2b1d12" text-anchor="middle" direction="rtl" dominant-baseline="middle">يُحرَّك الربع حتى تستر الهدفةُ العليا السفلى بظلها، ويُقرأ الارتفاع من جهة الخط الخالي من الهدف</text></svg>