<svg xmlns="http://www.w3.org/2000/svg" width="760" height="560" viewBox="0 0 760 560" font-family="Amiri, serif"><rect width="100%" height="100%" fill="#ffffff"/><circle cx="330.0" cy="290.0" r="220.0" stroke="#2b1d12" stroke-width="2" fill="none"/>
<circle cx="330.0" cy="290.0" r="4" fill="#2b1d12"/>
<text x="320.0" y="308.0" font-size="14" fill="#2b1d12" text-anchor="start" direction="rtl" dominant-baseline="middle">المركز</text>
<line x1="330.0" y1="290.0" x2="471.4" y2="121.5" stroke="#2b1d12" stroke-width="1.2" opacity="1" stroke-linecap="round"/>
<line x1="330.0" y1="290.0" x2="550.0" y2="290.0" stroke="#2b1d12" stroke-width="1.2" opacity="1" stroke-linecap="round"/>
<line x1="471.4" y1="121.5" x2="471.4" y2="458.5" stroke="#b0301f" stroke-width="2.4" opacity="1" stroke-linecap="round"/>
<text x="485.4" y="360.0" font-size="16" fill="#b0301f" text-anchor="end" direction="rtl" dominant-baseline="middle" font-weight="700">الوتر</text>
<line x1="471.4" y1="121.5" x2="471.4" y2="290.0" stroke="#1f4e79" stroke-width="4" opacity="1" stroke-linecap="round"/>
<text x="461.4" y="205.7" font-size="16" fill="#1f4e79" text-anchor="start" direction="rtl" dominant-baseline="middle" font-weight="700">الجيب (نصف الوتر)</text>
<line x1="330.0" y1="290.0" x2="471.4" y2="290.0" stroke="#2e6b3a" stroke-width="4" opacity="1" stroke-linecap="round"/>
<text x="400.7" y="312.0" font-size="16" fill="#2e6b3a" text-anchor="middle" direction="rtl" dominant-baseline="middle" font-weight="700">جيب التمام</text>
<line x1="471.4" y1="290.0" x2="550.0" y2="290.0" stroke="#6b2d6b" stroke-width="4" opacity="1" stroke-linecap="round"/>
<text x="516.7" y="312.0" font-size="16" fill="#6b2d6b" text-anchor="middle" direction="rtl" dominant-baseline="middle" font-weight="700">السهم</text>
<path d="M480.4,110.7 A234.0,234.0 0 0 1 564.0,290.0" stroke="#8a6d1c" stroke-width="3" fill="none" opacity="1" stroke-linejoin="round"/>
<text x="565.6" y="180.1" font-size="16" fill="#8a6d1c" text-anchor="end" direction="rtl" dominant-baseline="middle" font-weight="700">القوس</text>
<path d="M330.0,56.0 A234.0,234.0 0 0 1 480.4,110.7" stroke="#888888" stroke-width="2" fill="none" opacity="1" stroke-linejoin="round"/>
<text x="401.7" y="40.1" font-size="15" fill="#666666" text-anchor="end" direction="rtl" dominant-baseline="middle">تمام القوس</text>
<path d="M355.7,259.4 A40.0,40.0 0 0 1 370.0,290.0" stroke="#8a6d1c" stroke-width="2" fill="none" opacity="1" stroke-linejoin="round"/>
<text x="330.0" y="550.0" font-size="15" fill="#2b1d12" text-anchor="middle" direction="rtl" dominant-baseline="middle">جيب القوس نصف وتر ضعفها، وجيب التمام جيب ما بقي من القوس إلى تسعين، والسهم ما بين منتصف الوتر والقوس</text></svg>