<svg xmlns="http://www.w3.org/2000/svg" width="780" height="620" viewBox="0 0 780 620" font-family="Amiri, serif"><rect width="100%" height="100%" fill="#ffffff"/><circle cx="390.0" cy="310.0" r="240.0" stroke="#2b1d12" stroke-width="2" fill="none"/>
<circle cx="390.0" cy="70.0" r="5" fill="#2b1d12"/>
<text x="390.0" y="52.0" font-size="15" fill="#2b1d12" text-anchor="middle" direction="rtl" dominant-baseline="middle" font-weight="700">قطب المعدل الشمالي</text>
<circle cx="390.0" cy="550.0" r="5" fill="#2b1d12"/>
<text x="390.0" y="572.0" font-size="14" fill="#2b1d12" text-anchor="middle" direction="rtl" dominant-baseline="middle">القطب الجنوبي</text>
<path d="M150.0,310.0 A240.0,65.0 0 0 0 630.0,310.0" stroke="#1f4e79" stroke-width="2.4" fill="none" transform="rotate(0 390.0 310.0)"/>
<path d="M150.0,310.0 A240.0,65.0 0 0 1 630.0,310.0" stroke="#1f4e79" stroke-width="1.4" fill="none" stroke-dasharray="5,4" transform="rotate(0 390.0 310.0)"/>
<text x="160.0" y="394.0" font-size="15" fill="#1f4e79" text-anchor="end" direction="rtl" dominant-baseline="middle" font-weight="700">معدل النهار (دائرة الاستواء)</text>
<ellipse cx="390.0" cy="310.0" rx="240.0" ry="65.0" stroke="#b0301f" stroke-width="2" fill="none" transform="rotate(-23.5 390.0 310.0)"/>
<text x="520.0" y="190.0" font-size="15" fill="#b0301f" text-anchor="end" direction="rtl" dominant-baseline="middle" font-weight="700">منطقة البروج</text>
<circle cx="152.0" cy="310.0" r="5" fill="#8a6d1c"/>
<text x="144.0" y="296.0" font-size="15" fill="#8a6d1c" text-anchor="start" direction="rtl" dominant-baseline="middle" font-weight="700">رأس الحمل</text>
<path d="M390,70 Q540,190 510,370" stroke="#2e6b3a" stroke-width="1.6" fill="none" opacity="1" stroke-linejoin="round"/>
<text x="550.0" y="280.0" font-size="14" fill="#2e6b3a" text-anchor="end" direction="rtl" dominant-baseline="middle">دائرة الميل</text>
<circle cx="480.0" cy="160.0" r="7" fill="#8a6d1c"/>
<text x="468.0" y="150.0" font-size="15" fill="#8a6d1c" text-anchor="start" direction="rtl" dominant-baseline="middle" font-weight="700">الكوكب</text>
<path d="M480,160 Q515,270 510,370" stroke="#6b2d6b" stroke-width="4" fill="none" opacity="1" stroke-linejoin="round"/>
<text x="530.0" y="230.0" font-size="15" fill="#6b2d6b" text-anchor="end" direction="rtl" dominant-baseline="middle" font-weight="700">البُعد (الميل)</text>
<path d="M152.0,310.0 A240,65 0 0 0 510.0,370.0" stroke="#1f4e79" stroke-width="4.5" fill="none"/>
<text x="310.0" y="420.0" font-size="15" fill="#1f4e79" text-anchor="middle" direction="rtl" dominant-baseline="middle" font-weight="700">المطالع المستقيمة (المطلع)</text>
<text x="390.0" y="610.0" font-size="15" fill="#2b1d12" text-anchor="middle" direction="rtl" dominant-baseline="middle">الإحداثيات الاستوائية: البُعد عن معدل النهار، والمطالع المستقيمة على المعدل</text></svg>