<svg xmlns="http://www.w3.org/2000/svg" width="860" height="640" viewBox="0 0 860 640" font-family="Amiri, serif"><rect width="100%" height="100%" fill="#ffffff"/><circle cx="430.0" cy="330.0" r="250.0" stroke="#b0301f" stroke-width="2" fill="none"/>
<line x1="430.0" y1="20.0" x2="430.0" y2="330.0" stroke="#2b1d12" stroke-width="1.6" opacity="1" stroke-linecap="round"/>
<circle cx="430.0" cy="20.0" r="4" fill="#2b1d12"/>
<text x="430.0" y="4.0" font-size="15" fill="#2b1d12" text-anchor="middle" direction="rtl" dominant-baseline="middle">القطب الخفي</text>
<circle cx="430.0" cy="330.0" r="4" fill="#2b1d12"/>
<text x="440.0" y="344.0" font-size="14" fill="#2b1d12" text-anchor="end" direction="rtl" dominant-baseline="middle">القطب الظاهر</text>
<text x="550.0" y="100.0" font-size="15" fill="#2b1d12" text-anchor="middle" direction="rtl" dominant-baseline="middle">دائرة الأفق</text>
<path d="M90,250 Q430,180 770,250" stroke="#2b1d12" stroke-width="1.6" fill="none"/>
<path d="M90,250 Q430,320 770,250" stroke="#2b1d12" stroke-width="1.0" fill="none" stroke-dasharray="4,3"/>
<text x="430.0" y="204.0" font-size="14" fill="#2b1d12" text-anchor="middle" direction="rtl" dominant-baseline="middle">مدار جانب القطب الخفي</text>
<path d="M90,330 Q430,260 770,330" stroke="#1f4e79" stroke-width="1.6" fill="none"/>
<path d="M90,330 Q430,400 770,330" stroke="#1f4e79" stroke-width="1.0" fill="none" stroke-dasharray="4,3"/>
<text x="430.0" y="284.0" font-size="14" fill="#1f4e79" text-anchor="middle" direction="rtl" dominant-baseline="middle" font-weight="700">معدل النهار</text>
<path d="M90,410 Q430,340 770,410" stroke="#2b1d12" stroke-width="1.6" fill="none"/>
<path d="M90,410 Q430,480 770,410" stroke="#2b1d12" stroke-width="1.0" fill="none" stroke-dasharray="4,3"/>
<text x="430.0" y="364.0" font-size="14" fill="#2b1d12" text-anchor="middle" direction="rtl" dominant-baseline="middle">مدار جانب القطب الظاهر</text>
<path d="M182,328 L220,408 L186,416 Z" stroke="#8a6d1c" stroke-width="2.4" fill="#f6e7b5" opacity="0.9" stroke-linejoin="round"/>
<text x="160.0" y="370.0" font-size="14" fill="#8a6d1c" text-anchor="start" direction="rtl" dominant-baseline="middle" font-weight="700">الميل</text>
<text x="160.0" y="430.0" font-size="14" fill="#8a6d1c" text-anchor="start" direction="rtl" dominant-baseline="middle" font-weight="700">سعة المشرق</text>
<text x="250.0" y="446.0" font-size="14" fill="#8a6d1c" text-anchor="end" direction="rtl" dominant-baseline="middle" font-weight="700">نصف التعديل</text>
<text x="430.0" y="620.0" font-size="14" fill="#2b1d12" text-anchor="middle" direction="rtl" dominant-baseline="middle">المثلث القائم: ضلعه الأول من دائرة الميل، والثاني من الأفق (سعة المشرق)، والثالث من المدار (نصف تعديل النهار)</text></svg>