<svg xmlns="http://www.w3.org/2000/svg" width="1000" height="420" viewBox="0 0 1000 420" font-family="Amiri, serif"><rect width="100%" height="100%" fill="#ffffff"/><line x1="530.0" y1="99.2" x2="759.2" y2="99.2" stroke="#2b1d12" stroke-width="0.9" opacity="1" stroke-linecap="round"/>
<line x1="549.2" y1="80.0" x2="549.2" y2="309.2" stroke="#2b1d12" stroke-width="0.9" opacity="1" stroke-linecap="round"/>
<line x1="530.0" y1="118.3" x2="756.8" y2="118.3" stroke="#2b1d12" stroke-width="0.9" opacity="1" stroke-linecap="round"/>
<line x1="568.3" y1="80.0" x2="568.3" y2="306.8" stroke="#2b1d12" stroke-width="0.9" opacity="1" stroke-linecap="round"/>
<line x1="530.0" y1="137.5" x2="752.7" y2="137.5" stroke="#2b1d12" stroke-width="0.9" opacity="1" stroke-linecap="round"/>
<line x1="587.5" y1="80.0" x2="587.5" y2="302.7" stroke="#2b1d12" stroke-width="0.9" opacity="1" stroke-linecap="round"/>
<line x1="530.0" y1="156.7" x2="746.8" y2="156.7" stroke="#2b1d12" stroke-width="0.9" opacity="1" stroke-linecap="round"/>
<line x1="606.7" y1="80.0" x2="606.7" y2="296.8" stroke="#2b1d12" stroke-width="0.9" opacity="1" stroke-linecap="round"/>
<line x1="530.0" y1="175.8" x2="739.1" y2="175.8" stroke="#2b1d12" stroke-width="0.9" opacity="1" stroke-linecap="round"/>
<line x1="625.8" y1="80.0" x2="625.8" y2="289.1" stroke="#2b1d12" stroke-width="0.9" opacity="1" stroke-linecap="round"/>
<line x1="530.0" y1="195.0" x2="729.2" y2="195.0" stroke="#2b1d12" stroke-width="0.9" opacity="1" stroke-linecap="round"/>
<line x1="645.0" y1="80.0" x2="645.0" y2="279.2" stroke="#2b1d12" stroke-width="0.9" opacity="1" stroke-linecap="round"/>
<line x1="530.0" y1="214.2" x2="716.8" y2="214.2" stroke="#2b1d12" stroke-width="0.9" opacity="1" stroke-linecap="round"/>
<line x1="664.2" y1="80.0" x2="664.2" y2="266.8" stroke="#2b1d12" stroke-width="0.9" opacity="1" stroke-linecap="round"/>
<line x1="530.0" y1="233.3" x2="701.4" y2="233.3" stroke="#2b1d12" stroke-width="0.9" opacity="1" stroke-linecap="round"/>
<line x1="683.3" y1="80.0" x2="683.3" y2="251.4" stroke="#2b1d12" stroke-width="0.9" opacity="1" stroke-linecap="round"/>
<line x1="530.0" y1="252.5" x2="682.1" y2="252.5" stroke="#2b1d12" stroke-width="0.9" opacity="1" stroke-linecap="round"/>
<line x1="702.5" y1="80.0" x2="702.5" y2="232.1" stroke="#2b1d12" stroke-width="0.9" opacity="1" stroke-linecap="round"/>
<line x1="530.0" y1="271.7" x2="657.1" y2="271.7" stroke="#2b1d12" stroke-width="0.9" opacity="1" stroke-linecap="round"/>
<line x1="721.7" y1="80.0" x2="721.7" y2="207.1" stroke="#2b1d12" stroke-width="0.9" opacity="1" stroke-linecap="round"/>
<line x1="530.0" y1="290.8" x2="621.9" y2="290.8" stroke="#2b1d12" stroke-width="0.9" opacity="1" stroke-linecap="round"/>
<line x1="740.8" y1="80.0" x2="740.8" y2="171.9" stroke="#2b1d12" stroke-width="0.9" opacity="1" stroke-linecap="round"/>
<line x1="530.0" y1="80.0" x2="760.0" y2="80.0" stroke="#2b1d12" stroke-width="2.2" opacity="1" stroke-linecap="round"/>
<line x1="530.0" y1="80.0" x2="530.0" y2="310.0" stroke="#2b1d12" stroke-width="2.2" opacity="1" stroke-linecap="round"/>
<path d="M760.0,80.0 A230.0,230.0 0 0 1 530.0,310.0" stroke="#2b1d12" stroke-width="2.2" fill="none" opacity="1" stroke-linejoin="round"/>
<path d="M768.4,80.0 A238.4,238.4 0 0 1 530.0,318.4" stroke="#2b1d12" stroke-width="1.0" fill="none" opacity="1" stroke-linejoin="round"/>
<line x1="760.0" y1="80.0" x2="768.4" y2="80.0" stroke="#2b1d12" stroke-width="0.8" opacity="1" stroke-linecap="round"/>
<line x1="759.1" y1="100.0" x2="767.5" y2="100.8" stroke="#2b1d12" stroke-width="0.8" opacity="1" stroke-linecap="round"/>
<line x1="756.5" y1="119.9" x2="764.8" y2="121.4" stroke="#2b1d12" stroke-width="0.8" opacity="1" stroke-linecap="round"/>
<line x1="752.2" y1="139.5" x2="760.3" y2="141.7" stroke="#2b1d12" stroke-width="0.8" opacity="1" stroke-linecap="round"/>
<line x1="746.1" y1="158.7" x2="754.0" y2="161.5" stroke="#2b1d12" stroke-width="0.8" opacity="1" stroke-linecap="round"/>
<line x1="738.5" y1="177.2" x2="746.1" y2="180.8" stroke="#2b1d12" stroke-width="0.8" opacity="1" stroke-linecap="round"/>
<line x1="729.2" y1="195.0" x2="736.5" y2="199.2" stroke="#2b1d12" stroke-width="0.8" opacity="1" stroke-linecap="round"/>
<line x1="718.4" y1="211.9" x2="725.3" y2="216.7" stroke="#2b1d12" stroke-width="0.8" opacity="1" stroke-linecap="round"/>
<line x1="706.2" y1="227.8" x2="712.6" y2="233.2" stroke="#2b1d12" stroke-width="0.8" opacity="1" stroke-linecap="round"/>
<line x1="692.6" y1="242.6" x2="698.6" y2="248.6" stroke="#2b1d12" stroke-width="0.8" opacity="1" stroke-linecap="round"/>
<line x1="677.8" y1="256.2" x2="683.2" y2="262.6" stroke="#2b1d12" stroke-width="0.8" opacity="1" stroke-linecap="round"/>
<line x1="661.9" y1="268.4" x2="666.7" y2="275.3" stroke="#2b1d12" stroke-width="0.8" opacity="1" stroke-linecap="round"/>
<line x1="645.0" y1="279.2" x2="649.2" y2="286.5" stroke="#2b1d12" stroke-width="0.8" opacity="1" stroke-linecap="round"/>
<line x1="627.2" y1="288.5" x2="630.8" y2="296.1" stroke="#2b1d12" stroke-width="0.8" opacity="1" stroke-linecap="round"/>
<line x1="608.7" y1="296.1" x2="611.5" y2="304.0" stroke="#2b1d12" stroke-width="0.8" opacity="1" stroke-linecap="round"/>
<line x1="589.5" y1="302.2" x2="591.7" y2="310.3" stroke="#2b1d12" stroke-width="0.8" opacity="1" stroke-linecap="round"/>
<line x1="569.9" y1="306.5" x2="571.4" y2="314.8" stroke="#2b1d12" stroke-width="0.8" opacity="1" stroke-linecap="round"/>
<line x1="550.0" y1="309.1" x2="550.8" y2="317.5" stroke="#2b1d12" stroke-width="0.8" opacity="1" stroke-linecap="round"/>
<line x1="530.0" y1="310.0" x2="530.0" y2="318.4" stroke="#2b1d12" stroke-width="0.8" opacity="1" stroke-linecap="round"/>
<path d="M566.4,80.0 L566.4,70.0 L576.4,70.0 L576.4,80.0" stroke="#2b1d12" stroke-width="1.4" fill="#f3e6d8" opacity="1" stroke-linejoin="round"/>
<path d="M713.6,80.0 L713.6,70.0 L723.6,70.0 L723.6,80.0" stroke="#2b1d12" stroke-width="1.4" fill="#f3e6d8" opacity="1" stroke-linejoin="round"/>
<circle cx="530.0" cy="80.0" r="3.5" stroke="#2b1d12" stroke-width="1.2" fill="#ffffff"/>
<text x="645.0" y="42.0" font-size="18" fill="#2b1d12" text-anchor="middle" direction="rtl" dominant-baseline="middle" font-weight="700">١) المري على جيب الميل ٢٤</text>
<text x="516.0" y="314.0" font-size="12" fill="#2b1d12" text-anchor="start" direction="rtl" dominant-baseline="middle">٩٠°</text>
<text x="764.0" y="68.0" font-size="12" fill="#2b1d12" text-anchor="end" direction="rtl" dominant-baseline="middle">٠°</text>
<line x1="524.0" y1="172.0" x2="536.0" y2="172.0" stroke="#1f4e79" stroke-width="2" opacity="1" stroke-linecap="round"/>
<text x="520.0" y="172.0" font-size="14" fill="#1f4e79" text-anchor="start" direction="rtl" dominant-baseline="middle">٢٤</text>
<line x1="530.0" y1="80.0" x2="530.0" y2="337.6" stroke="#b0301f" stroke-width="1.8" opacity="1" stroke-linecap="round"/>
<circle cx="530.0" cy="337.6" r="5.0" stroke="#b0301f" stroke-width="1.2" fill="#ffffff"/>
<rect x="525.0" y="167.0" width="10" height="10" fill="#ffffff" stroke="#b0301f" stroke-width="2"/>
<line x1="500.0" y1="195.0" x2="430.0" y2="195.0" stroke="#8a6d1c" stroke-width="2" opacity="1" stroke-linecap="round"/>
<path d="M430.0,195.0 L438.3,191.5 L438.3,198.5 Z" fill="#8a6d1c"/>
<line x1="180.0" y1="99.2" x2="409.2" y2="99.2" stroke="#2b1d12" stroke-width="0.9" opacity="1" stroke-linecap="round"/>
<line x1="199.2" y1="80.0" x2="199.2" y2="309.2" stroke="#2b1d12" stroke-width="0.9" opacity="1" stroke-linecap="round"/>
<line x1="180.0" y1="118.3" x2="406.8" y2="118.3" stroke="#2b1d12" stroke-width="0.9" opacity="1" stroke-linecap="round"/>
<line x1="218.3" y1="80.0" x2="218.3" y2="306.8" stroke="#2b1d12" stroke-width="0.9" opacity="1" stroke-linecap="round"/>
<line x1="180.0" y1="137.5" x2="402.7" y2="137.5" stroke="#2b1d12" stroke-width="0.9" opacity="1" stroke-linecap="round"/>
<line x1="237.5" y1="80.0" x2="237.5" y2="302.7" stroke="#2b1d12" stroke-width="0.9" opacity="1" stroke-linecap="round"/>
<line x1="180.0" y1="156.7" x2="396.8" y2="156.7" stroke="#2b1d12" stroke-width="0.9" opacity="1" stroke-linecap="round"/>
<line x1="256.7" y1="80.0" x2="256.7" y2="296.8" stroke="#2b1d12" stroke-width="0.9" opacity="1" stroke-linecap="round"/>
<line x1="180.0" y1="175.8" x2="389.1" y2="175.8" stroke="#2b1d12" stroke-width="0.9" opacity="1" stroke-linecap="round"/>
<line x1="275.8" y1="80.0" x2="275.8" y2="289.1" stroke="#2b1d12" stroke-width="0.9" opacity="1" stroke-linecap="round"/>
<line x1="180.0" y1="195.0" x2="379.2" y2="195.0" stroke="#2b1d12" stroke-width="0.9" opacity="1" stroke-linecap="round"/>
<line x1="295.0" y1="80.0" x2="295.0" y2="279.2" stroke="#2b1d12" stroke-width="0.9" opacity="1" stroke-linecap="round"/>
<line x1="180.0" y1="214.2" x2="366.8" y2="214.2" stroke="#2b1d12" stroke-width="0.9" opacity="1" stroke-linecap="round"/>
<line x1="314.2" y1="80.0" x2="314.2" y2="266.8" stroke="#2b1d12" stroke-width="0.9" opacity="1" stroke-linecap="round"/>
<line x1="180.0" y1="233.3" x2="351.4" y2="233.3" stroke="#2b1d12" stroke-width="0.9" opacity="1" stroke-linecap="round"/>
<line x1="333.3" y1="80.0" x2="333.3" y2="251.4" stroke="#2b1d12" stroke-width="0.9" opacity="1" stroke-linecap="round"/>
<line x1="180.0" y1="252.5" x2="332.1" y2="252.5" stroke="#2b1d12" stroke-width="0.9" opacity="1" stroke-linecap="round"/>
<line x1="352.5" y1="80.0" x2="352.5" y2="232.1" stroke="#2b1d12" stroke-width="0.9" opacity="1" stroke-linecap="round"/>
<line x1="180.0" y1="271.7" x2="307.1" y2="271.7" stroke="#2b1d12" stroke-width="0.9" opacity="1" stroke-linecap="round"/>
<line x1="371.7" y1="80.0" x2="371.7" y2="207.1" stroke="#2b1d12" stroke-width="0.9" opacity="1" stroke-linecap="round"/>
<line x1="180.0" y1="290.8" x2="271.9" y2="290.8" stroke="#2b1d12" stroke-width="0.9" opacity="1" stroke-linecap="round"/>
<line x1="390.8" y1="80.0" x2="390.8" y2="171.9" stroke="#2b1d12" stroke-width="0.9" opacity="1" stroke-linecap="round"/>
<line x1="180.0" y1="80.0" x2="410.0" y2="80.0" stroke="#2b1d12" stroke-width="2.2" opacity="1" stroke-linecap="round"/>
<line x1="180.0" y1="80.0" x2="180.0" y2="310.0" stroke="#2b1d12" stroke-width="2.2" opacity="1" stroke-linecap="round"/>
<path d="M410.0,80.0 A230.0,230.0 0 0 1 180.0,310.0" stroke="#2b1d12" stroke-width="2.2" fill="none" opacity="1" stroke-linejoin="round"/>
<path d="M418.4,80.0 A238.4,238.4 0 0 1 180.0,318.4" stroke="#2b1d12" stroke-width="1.0" fill="none" opacity="1" stroke-linejoin="round"/>
<line x1="410.0" y1="80.0" x2="418.4" y2="80.0" stroke="#2b1d12" stroke-width="0.8" opacity="1" stroke-linecap="round"/>
<line x1="409.1" y1="100.0" x2="417.5" y2="100.8" stroke="#2b1d12" stroke-width="0.8" opacity="1" stroke-linecap="round"/>
<line x1="406.5" y1="119.9" x2="414.8" y2="121.4" stroke="#2b1d12" stroke-width="0.8" opacity="1" stroke-linecap="round"/>
<line x1="402.2" y1="139.5" x2="410.3" y2="141.7" stroke="#2b1d12" stroke-width="0.8" opacity="1" stroke-linecap="round"/>
<line x1="396.1" y1="158.7" x2="404.0" y2="161.5" stroke="#2b1d12" stroke-width="0.8" opacity="1" stroke-linecap="round"/>
<line x1="388.5" y1="177.2" x2="396.1" y2="180.8" stroke="#2b1d12" stroke-width="0.8" opacity="1" stroke-linecap="round"/>
<line x1="379.2" y1="195.0" x2="386.5" y2="199.2" stroke="#2b1d12" stroke-width="0.8" opacity="1" stroke-linecap="round"/>
<line x1="368.4" y1="211.9" x2="375.3" y2="216.7" stroke="#2b1d12" stroke-width="0.8" opacity="1" stroke-linecap="round"/>
<line x1="356.2" y1="227.8" x2="362.6" y2="233.2" stroke="#2b1d12" stroke-width="0.8" opacity="1" stroke-linecap="round"/>
<line x1="342.6" y1="242.6" x2="348.6" y2="248.6" stroke="#2b1d12" stroke-width="0.8" opacity="1" stroke-linecap="round"/>
<line x1="327.8" y1="256.2" x2="333.2" y2="262.6" stroke="#2b1d12" stroke-width="0.8" opacity="1" stroke-linecap="round"/>
<line x1="311.9" y1="268.4" x2="316.7" y2="275.3" stroke="#2b1d12" stroke-width="0.8" opacity="1" stroke-linecap="round"/>
<line x1="295.0" y1="279.2" x2="299.2" y2="286.5" stroke="#2b1d12" stroke-width="0.8" opacity="1" stroke-linecap="round"/>
<line x1="277.2" y1="288.5" x2="280.8" y2="296.1" stroke="#2b1d12" stroke-width="0.8" opacity="1" stroke-linecap="round"/>
<line x1="258.7" y1="296.1" x2="261.5" y2="304.0" stroke="#2b1d12" stroke-width="0.8" opacity="1" stroke-linecap="round"/>
<line x1="239.5" y1="302.2" x2="241.7" y2="310.3" stroke="#2b1d12" stroke-width="0.8" opacity="1" stroke-linecap="round"/>
<line x1="219.9" y1="306.5" x2="221.4" y2="314.8" stroke="#2b1d12" stroke-width="0.8" opacity="1" stroke-linecap="round"/>
<line x1="200.0" y1="309.1" x2="200.8" y2="317.5" stroke="#2b1d12" stroke-width="0.8" opacity="1" stroke-linecap="round"/>
<line x1="180.0" y1="310.0" x2="180.0" y2="318.4" stroke="#2b1d12" stroke-width="0.8" opacity="1" stroke-linecap="round"/>
<path d="M216.4,80.0 L216.4,70.0 L226.4,70.0 L226.4,80.0" stroke="#2b1d12" stroke-width="1.4" fill="#f3e6d8" opacity="1" stroke-linejoin="round"/>
<path d="M363.6,80.0 L363.6,70.0 L373.6,70.0 L373.6,80.0" stroke="#2b1d12" stroke-width="1.4" fill="#f3e6d8" opacity="1" stroke-linejoin="round"/>
<circle cx="180.0" cy="80.0" r="3.5" stroke="#2b1d12" stroke-width="1.2" fill="#ffffff"/>
<text x="295.0" y="42.0" font-size="18" fill="#2b1d12" text-anchor="middle" direction="rtl" dominant-baseline="middle" font-weight="700">٢) الخيط على العرض ٣٦;٤٠</text>
<text x="166.0" y="314.0" font-size="12" fill="#2b1d12" text-anchor="start" direction="rtl" dominant-baseline="middle">٩٠°</text>
<text x="414.0" y="68.0" font-size="12" fill="#2b1d12" text-anchor="end" direction="rtl" dominant-baseline="middle">٠°</text>
<line x1="174.0" y1="134.9" x2="186.0" y2="134.9" stroke="#1f4e79" stroke-width="2" opacity="1" stroke-linecap="round"/>
<text x="170.0" y="134.9" font-size="14" fill="#1f4e79" text-anchor="start" direction="rtl" dominant-baseline="middle">بُعد القطر ١٤</text>
<line x1="180.0" y1="80.0" x2="386.6" y2="233.8" stroke="#b0301f" stroke-width="1.8" opacity="1" stroke-linecap="round"/>
<circle cx="386.6" cy="233.8" r="5.0" stroke="#b0301f" stroke-width="1.2" fill="#ffffff"/>
<rect x="248.8" y="129.9" width="10" height="10" fill="#ffffff" stroke="#b0301f" stroke-width="2"/>
<line x1="253.8" y1="134.9" x2="180.0" y2="134.9" stroke="#1f4e79" stroke-width="1.6" stroke-dasharray="5,3" opacity="1" stroke-linecap="round"/>
<path d="M432.0,80.0 A252.0,252.0 0 0 1 382.1,230.5" stroke="#2e6b3a" stroke-width="2.2" fill="none" opacity="1" stroke-linejoin="round"/>
<text x="430.6" y="163.0" font-size="15" fill="#2e6b3a" text-anchor="end" direction="rtl" dominant-baseline="middle" font-weight="700">العرض</text>
<text x="295.0" y="360.0" font-size="15" fill="#2b1d12" text-anchor="middle" direction="rtl" dominant-baseline="middle">بُعد القطر = ٢٤ × جا العرض ⁄ ٦٠ ≈ ١٤</text>
<text x="295.0" y="382.0" font-size="15" fill="#2b1d12" text-anchor="middle" direction="rtl" dominant-baseline="middle">الأصل = جيب الغاية ٥٨;١٦ − ١٤ = ٤٤</text></svg>